<?xml version="1.0" encoding="utf-8"?>
<!-- Generator: Adobe Illustrator 22.1.0, SVG Export Plug-In . SVG Version: 6.00 Build 0)  -->
<svg version="1.1" id="Layer_1" xmlns="http://www.w3.org/2000/svg" xmlns:xlink="http://www.w3.org/1999/xlink" x="0px" y="0px"
	 viewBox="0 0 292 70.9" style="enable-background:new 0 0 292 70.9;" xml:space="preserve">
<style type="text/css">
	.st0{fill:#002B49;}
	.st1{fill:#CF3339;}
</style>
<g>
	<g>
		<path id="XMLID_27092_" class="st0" d="M95.1,29.8l-3.6,4.8h-1.7l-3.6-4.8V39h-4l0-16.7h3.3l5.2,7.2l5.2-7.2h3.3l0,16.7h-4V29.8z"
			/>
		<path id="XMLID_27090_" class="st0" d="M106.6,39h-4V22.3h4V39z"/>
		<path id="XMLID_27087_" class="st0" d="M110,39V22.3h6.4c2.6,0,4.8,0.8,6.4,2.4c1.6,1.6,2.4,3.6,2.4,6c0,2.4-0.8,4.4-2.4,6
			c-1.6,1.6-3.7,2.3-6.4,2.3H110z M114,25.8v9.8h2.1c1.4,0,2.6-0.4,3.5-1.3c0.9-0.9,1.4-2.1,1.4-3.6c0-3.1-2.1-4.9-4.9-4.9H114z"/>
		<path id="XMLID_27085_" class="st0" d="M127.3,31h7.8v3.2h-7.8V31z"/>
		<path id="XMLID_27083_" class="st0" d="M132.1,31h7.8v3.2h-7.8V31z"/>
		<path id="XMLID_27081_" class="st0" d="M156.2,37.4c-0.1,0.1-0.2,0.3-0.9,0.7c-0.3,0.3-0.7,0.4-1.1,0.6c-0.8,0.3-2.3,0.7-3.7,0.7
			c-2.6,0-4.7-0.8-6.3-2.5c-1.6-1.7-2.3-3.8-2.3-6.3c0-2.5,0.8-4.5,2.3-6.2c1.6-1.7,3.6-2.5,6.3-2.5c1.2,0,2.2,0.2,3.2,0.5
			c0.9,0.3,1.6,0.7,2,1l0.6,0.5l-2.3,3.1c-0.1-0.2-0.3-0.4-1.5-0.9c-0.6-0.2-1.2-0.4-1.9-0.4c-1.3,0-2.4,0.4-3.2,1.3
			c-0.8,0.9-1.3,2.1-1.3,3.5c0,1.5,0.4,2.6,1.3,3.5c0.8,0.9,1.9,1.3,3.2,1.3c1.3,0,2.6-0.5,3-0.9l0.3-0.3L156.2,37.4z"/>
		<path id="XMLID_27078_" class="st0" d="M159.2,36.9c-1.6-1.7-2.4-3.8-2.4-6.2c0-2.4,0.8-4.5,2.4-6.2c1.6-1.7,3.7-2.5,6.1-2.5
			c2.5,0,4.6,0.8,6.2,2.5c1.6,1.7,2.4,3.8,2.4,6.2c0,2.4-0.8,4.5-2.4,6.2c-1.6,1.7-3.7,2.5-6.2,2.5
			C162.9,39.4,160.8,38.6,159.2,36.9z M168.5,34.1c0.9-0.9,1.3-2.1,1.3-3.5c0-1.4-0.4-2.6-1.3-3.5c-0.8-0.9-1.9-1.3-3.1-1.3
			c-1.2,0-2.3,0.4-3.1,1.3c-0.8,0.9-1.2,2.1-1.2,3.5c0,1.4,0.4,2.6,1.2,3.5c0.8,0.9,1.9,1.3,3.1,1.3C166.6,35.5,167.7,35,168.5,34.1
			z"/>
		<path id="XMLID_27076_" class="st0" d="M191.6,39h-3.1l-8-9.8V39h-4V22.3h3.1l8,9.6v-9.6h4V39z"/>
		<path id="XMLID_27074_" class="st0" d="M194,22.3h13.4v3.5h-4.7V39h-4V25.8H194V22.3z"/>
		<path id="XMLID_27072_" class="st0" d="M213.8,39h-4V22.3h4V39z"/>
		<path id="XMLID_27070_" class="st0" d="M232.4,39h-3.1l-8-9.8V39h-4V22.3h3.1l8,9.6v-9.6h4V39z"/>
		<path id="XMLID_27068_" class="st0" d="M246.6,32.1h-6.8v3.4h8.1V39h-12.1V22.3H248v3.5h-8.1V29h6.8V32.1z"/>
		<path id="XMLID_27066_" class="st0" d="M265.8,39h-3.1l-8-9.8V39h-4V22.3h3.1l8,9.6v-9.6h4V39z"/>
		<path id="XMLID_27064_" class="st0" d="M268.1,22.3h13.4v3.5h-4.7V39h-4V25.8h-4.7V22.3z"/>
		<path id="XMLID_27062_" class="st0" d="M82.5,49.3c0.2,0.1,0.3,0.3,1.1,0.5c0.4,0.1,0.7,0.2,1,0.2c0.5,0,0.8-0.2,0.8-0.6
			c0-0.4-0.2-0.6-1.3-0.9c-1.7-0.5-2.5-1.1-2.5-2.3c0-1.4,1-2.3,2.9-2.3c1.2,0,2.2,0.3,2.6,0.6l0.3,0.2l-1,1.5
			c-0.1-0.1-0.2-0.2-0.9-0.4c-0.3-0.1-0.6-0.2-0.9-0.2c-0.5,0-0.8,0.2-0.8,0.6c0,0.4,0.3,0.5,1.2,0.8c1.7,0.5,2.6,1.2,2.6,2.4
			c0,1.5-1,2.5-2.9,2.5c-0.6,0-1.2-0.1-1.7-0.2c-0.5-0.2-0.9-0.3-1.1-0.5l-0.3-0.2L82.5,49.3z"/>
		<path id="XMLID_27060_" class="st0" d="M96.9,44h6v1.6h-2.1v6H99v-6h-2.1V44z"/>
		<path id="XMLID_27058_" class="st0" d="M117.6,48.5h-3V50h3.6v1.6h-5.4V44h5.4v1.6h-3.6V47h3V48.5z"/>
		<path id="XMLID_27056_" class="st0" d="M133,48.5h-3V50h3.6v1.6h-5.4V44h5.4v1.6h-3.6V47h3V48.5z"/>
		<path id="XMLID_27054_" class="st0" d="M143.5,51.6V44h1.8v6h3.3v1.6H143.5z"/>
		<path id="XMLID_27051_" class="st0" d="M174.6,51.6h-2l-0.5-1.4h-2.9l-0.5,1.4h-1.9l2.9-7.5h2L174.6,51.6z M169.8,48.8h1.9
			l-0.9-2.8L169.8,48.8z"/>
		<path id="XMLID_27049_" class="st0" d="M190.8,51.6h-1.4l-3.6-4.4v4.4H184V44h1.4l3.6,4.3V44h1.8V51.6z"/>
		<path id="XMLID_27046_" class="st0" d="M201.1,51.6V44h2.9c1.2,0,2.1,0.4,2.9,1.1c0.7,0.7,1.1,1.6,1.1,2.7s-0.4,2-1.1,2.7
			c-0.7,0.7-1.7,1.1-2.9,1.1H201.1z M202.9,45.6V50h0.9c0.6,0,1.2-0.2,1.6-0.6c0.4-0.4,0.6-0.9,0.6-1.6c0-1.4-0.9-2.2-2.2-2.2H202.9
			z"/>
		<path id="XMLID_27044_" class="st0" d="M230.7,47.3l-1.2,4.2H228l-2.2-7.5h2l0.9,4l1.2-4h1.3l1.2,4l1-4h2l-2.2,7.5H232L230.7,47.3
			z"/>
		<path id="XMLID_27042_" class="st0" d="M247,51.6h-1.8V44h1.8V51.6z"/>
		<path id="XMLID_27039_" class="st0" d="M260.6,44c0.8,0,1.5,0.2,2.1,0.7c0.5,0.5,0.8,1.1,0.8,1.8c0,1-0.5,1.8-1.4,2.2v0.1l1.7,2.5
			v0.1h-2.1l-1.6-2.5h-1v2.5h-1.8V44H260.6z M260.5,45.6h-1.4v1.9h1.4c0.7,0,1.1-0.4,1.1-1C261.7,45.9,261.2,45.6,260.5,45.6z"/>
		<path id="XMLID_27037_" class="st0" d="M278.4,48.5h-3V50h3.6v1.6h-5.4V44h5.4v1.6h-3.6V47h3V48.5z"/>
		<path id="XMLID_27036_" class="st1" d="M61,24.6c1.5,3.4,2.3,7,2.3,10.7c0,14.4-11.7,26.2-26.2,26.2c-3.7,0-7.4-0.8-10.7-2.3l-4,4
			c4.5,2.4,9.6,3.7,14.7,3.7c17.4,0,31.5-14.1,31.5-31.5c0-5.1-1.3-10.2-3.7-14.7L61,24.6z"/>
		<polygon id="XMLID_27035_" class="st1" points="50.9,47.7 50.9,34.7 44.3,41.2 44.3,47.7 		"/>
		<path id="XMLID_27034_" class="st0" d="M22.7,57.1C15.3,52.3,11,44.1,11,35.3C11,20.9,22.7,9.1,37.1,9.1c8.8,0,16.9,4.4,21.8,11.7
			L59,21l3.8-3.8C56.9,8.8,47.3,3.8,37.1,3.8C19.8,3.8,5.6,18,5.6,35.3c0,10.2,5,19.8,13.3,25.7l3.8-3.8L22.7,57.1z"/>
		<polygon id="XMLID_27033_" class="st0" points="50.9,28.3 50.9,23.9 48.1,23.9 37.5,34.5 27,23.9 23.4,23.9 23.4,47.7 29.9,47.7 
			29.9,36.1 35.1,41.3 38.6,41.3 50.9,29.1 50.9,28.3 		"/>
		<path class="st0" d="M284.3,22.3c0.4,0,0.7,0.1,1,0.3c0.3,0.2,0.6,0.4,0.7,0.7c0.2,0.3,0.3,0.6,0.3,1c0,0.4-0.1,0.7-0.3,1
			c-0.2,0.3-0.4,0.6-0.7,0.7c-0.3,0.2-0.7,0.3-1,0.3c-0.4,0-0.7-0.1-1-0.3c-0.3-0.2-0.6-0.4-0.7-0.7c-0.2-0.3-0.3-0.6-0.3-1
			c0-0.4,0.1-0.7,0.3-1c0.2-0.3,0.4-0.6,0.7-0.7C283.6,22.4,284,22.3,284.3,22.3z M284.3,22.6c-0.5,0-0.9,0.2-1.2,0.5
			c-0.3,0.3-0.5,0.7-0.5,1.2c0,0.5,0.2,0.9,0.5,1.2c0.3,0.3,0.7,0.5,1.2,0.5c0.5,0,0.9-0.2,1.2-0.5c0.3-0.3,0.5-0.7,0.5-1.2
			c0-0.5-0.2-0.9-0.5-1.2C285.2,22.8,284.8,22.6,284.3,22.6z M283.9,25.4h-0.3v-2.2h0.7c0.3,0,0.5,0,0.6,0.1c0.1,0,0.2,0.1,0.3,0.2
			c0.1,0.1,0.1,0.2,0.1,0.3c0,0.2-0.1,0.3-0.2,0.4c-0.1,0.1-0.3,0.2-0.4,0.2c0.1,0,0.2,0.1,0.2,0.2c0.1,0.1,0.2,0.2,0.3,0.4l0.3,0.4
			h-0.4l-0.2-0.3c-0.1-0.2-0.2-0.4-0.3-0.5c-0.1-0.1-0.2-0.1-0.3-0.1h-0.2V25.4z M283.9,23.5v0.7h0.4c0.2,0,0.3,0,0.4-0.1
			c0.1-0.1,0.1-0.1,0.1-0.2c0-0.1,0-0.2-0.1-0.2c-0.1,0-0.2-0.1-0.4-0.1H283.9z"/>
	</g>
</g>
</svg>
